<svg id="svg" version="1.1" width="664" height="714" xmlns="http://www.w3.org/2000/svg" xmlns:xlink="http://www.w3.org/1999/xlink" style="display: block;"><g id="svgg"><path id="path0" d="M189.458 20.167 C 187.139 20.597,183.383 21.655,181.112 22.519 C 178.841 23.383,176.672 23.912,176.293 23.695 C 175.913 23.478,175.804 23.524,176.051 23.796 C 176.298 24.068,174.929 25.317,173.010 26.571 C 155.173 38.226,146.918 60.594,153.249 80.120 C 154.162 82.937,154.947 85.695,154.993 86.251 C 155.039 86.806,155.262 87.147,155.488 87.007 C 156.092 86.634,156.696 88.548,156.231 89.362 C 156.011 89.746,156.050 89.862,156.318 89.619 C 156.587 89.377,158.125 91.051,159.738 93.340 C 163.699 98.962,169.351 104.004,175.662 107.546 L 180.900 110.486 180.537 118.948 C 180.338 123.602,179.601 150.858,178.900 179.518 C 178.199 208.178,177.513 231.979,177.374 232.410 C 177.236 232.841,177.052 239.122,176.965 246.367 C 176.878 253.612,176.634 259.713,176.422 259.924 C 176.080 260.265,169.669 256.320,147.590 242.181 C 144.111 239.953,139.029 236.708,136.295 234.971 C 133.562 233.233,131.325 231.763,131.325 231.703 C 131.325 231.644,131.604 229.369,131.946 226.648 C 132.722 220.459,131.912 213.289,129.663 206.439 C 128.772 203.726,128.077 201.149,128.118 200.713 C 128.159 200.277,128.040 200.072,127.854 200.259 C 127.308 200.805,125.234 196.982,125.682 196.256 C 125.912 195.885,125.814 195.767,125.460 195.986 C 124.691 196.462,122.694 193.578,123.213 192.739 C 123.417 192.409,123.342 192.213,123.047 192.304 C 122.752 192.395,120.806 190.770,118.723 188.691 C 112.628 182.609,105.324 178.342,97.289 176.169 C 93.809 175.228,79.072 174.068,78.765 174.711 C 78.682 174.884,76.608 175.500,74.155 176.081 C 58.653 179.751,45.971 191.395,40.559 206.928 C 38.270 213.500,38.079 229.128,40.210 235.498 C 40.923 237.627,41.341 239.660,41.138 240.016 C 40.936 240.372,40.975 240.479,41.224 240.256 C 41.474 240.032,42.473 241.361,43.445 243.209 C 55.507 266.139,82.785 274.933,106.444 263.520 L 111.985 260.847 127.679 270.843 C 136.311 276.341,143.257 281.026,143.116 281.254 C 142.975 281.483,143.314 281.677,143.870 281.685 C 145.096 281.704,162.676 292.845,162.340 293.389 C 162.208 293.602,162.452 293.775,162.880 293.775 C 163.308 293.775,166.268 295.379,169.458 297.339 L 175.258 300.904 175.280 327.108 C 175.292 341.521,175.482 370.595,175.702 391.717 L 176.101 430.120 201.788 430.120 L 227.474 430.120 228.202 421.837 C 229.872 402.828,230.268 389.230,229.515 376.705 C 228.701 363.168,228.576 363.889,232.084 361.906 C 233.489 361.112,240.060 357.246,246.687 353.314 C 253.313 349.382,261.581 344.498,265.060 342.460 C 268.539 340.422,276.807 335.545,283.434 331.623 C 290.060 327.700,299.819 321.934,305.120 318.809 L 314.759 313.128 318.072 314.931 C 336.506 324.957,359.385 321.380,374.653 306.085 C 376.832 303.902,378.838 302.189,379.111 302.278 C 379.384 302.367,379.450 302.184,379.257 301.873 C 379.065 301.561,379.856 299.712,381.017 297.764 C 383.284 293.958,386.747 285.083,386.747 283.080 C 386.747 282.407,386.955 281.985,387.208 282.142 C 388.116 282.703,387.499 266.102,386.473 262.361 C 371.462 207.627,292.831 219.118,294.085 275.863 L 294.277 284.558 287.048 288.876 C 267.770 300.390,257.439 306.281,256.520 306.282 C 255.965 306.282,255.625 306.469,255.766 306.697 C 255.907 306.925,255.006 307.713,253.764 308.449 C 243.111 314.763,227.092 324.096,226.910 324.096 C 226.570 324.096,226.055 315.918,224.093 279.377 C 223.110 261.066,222.025 241.476,221.681 235.843 C 221.021 225.019,221.576 222.629,224.490 223.747 C 224.928 223.915,225.222 223.780,225.143 223.447 C 225.065 223.113,229.744 219.926,235.542 216.365 C 259.101 201.894,268.659 196.036,274.273 192.626 L 280.172 189.042 285.718 191.824 C 299.901 198.937,316.301 198.841,329.921 191.566 C 332.296 190.297,334.397 189.372,334.590 189.509 C 334.782 189.647,334.822 189.596,334.677 189.396 C 334.533 189.196,336.102 187.602,338.164 185.852 C 354.294 172.168,359.111 148.355,349.593 129.345 C 348.799 127.759,348.315 126.193,348.517 125.866 C 348.719 125.539,348.637 125.346,348.334 125.437 C 348.030 125.528,346.452 123.850,344.825 121.709 C 327.279 98.609,292.942 97.057,272.898 118.457 C 270.769 120.730,268.792 122.516,268.505 122.425 C 268.218 122.334,268.148 122.527,268.350 122.854 C 268.553 123.181,268.048 124.511,267.228 125.809 C 262.073 133.975,259.203 148.530,261.018 157.296 L 261.469 159.471 254.680 163.689 C 216.227 187.582,218.684 186.426,218.643 180.643 C 218.625 178.202,218.485 174.714,218.332 172.892 C 218.070 169.785,216.064 133.829,215.254 117.733 L 214.888 110.467 218.279 108.808 C 228.875 103.623,237.154 94.996,241.565 84.540 C 242.450 82.442,243.287 80.837,243.425 80.975 C 243.562 81.112,243.696 80.502,243.722 79.618 C 243.748 78.735,244.085 76.250,244.471 74.096 C 250.169 42.268,221.558 14.220,189.458 20.167 M206.065 38.907 C 223.753 44.070,232.054 65.100,222.569 80.723 C 207.157 106.109,168.808 94.551,169.990 64.875 C 170.714 46.694,188.610 33.812,206.065 38.907 M313.799 122.614 C 336.199 127.894,343.472 156.017,326.406 171.361 C 310.411 185.742,285.285 177.966,279.845 156.952 C 274.639 136.842,293.451 117.818,313.799 122.614 M92.100 194.012 C 110.019 198.143,119.248 219.420,110.099 235.509 C 96.822 258.858,61.665 252.501,57.109 225.928 C 53.783 206.536,72.474 189.487,92.100 194.012 M348.882 246.371 C 373.705 254.092,376.226 287.826,352.837 299.281 C 335.762 307.643,315.437 296.663,312.593 277.539 C 309.583 257.302,329.375 240.304,348.882 246.371 " stroke="none" fill="#333333" fill-rule="evenodd"></path><path id="path1" d="M186.446 19.801 C 181.976 20.902,176.512 22.958,176.508 23.542 C 176.507 23.733,175.083 24.544,173.343 25.342 C 171.604 26.141,169.964 27.136,169.699 27.554 C 169.434 27.971,168.838 28.313,168.373 28.313 C 167.909 28.313,167.313 28.695,167.048 29.161 C 166.783 29.627,164.804 31.863,162.651 34.131 C 141.277 56.633,148.974 95.330,177.725 109.925 C 179.603 110.878,179.704 113.955,178.922 146.257 C 178.515 163.060,177.873 189.467,177.495 204.940 C 177.117 220.414,176.979 232.884,177.188 232.651 C 177.398 232.419,178.157 208.611,178.875 179.744 C 179.593 150.878,180.342 123.485,180.539 118.872 L 180.898 110.485 175.661 107.545 C 135.857 85.205,147.268 25.465,192.428 19.761 C 225.236 15.618,251.921 46.156,243.665 78.396 C 240.264 91.675,228.663 105.039,216.533 109.651 L 214.879 110.280 215.249 117.640 C 216.059 133.741,218.069 169.771,218.332 172.892 C 218.485 174.714,218.625 178.202,218.643 180.643 C 218.684 186.426,216.227 187.582,254.680 163.689 L 261.469 159.471 261.018 157.296 C 256.503 135.494,272.515 111.029,295.405 104.755 C 298.662 103.863,299.045 103.663,296.990 103.929 C 287.066 105.211,272.512 114.749,268.251 122.764 C 267.474 124.225,266.201 126.274,265.423 127.318 C 261.775 132.212,259.326 143.481,259.821 153.102 L 260.151 159.518 250.783 165.151 C 245.631 168.248,240.026 171.596,238.328 172.590 C 232.434 176.040,231.171 176.825,225.991 180.259 C 223.127 182.157,220.498 183.716,220.148 183.723 C 219.526 183.735,216.202 125.139,216.253 115.060 L 216.276 110.542 221.147 108.200 C 238.173 100.010,249.382 75.954,245.218 56.538 C 244.496 53.171,239.208 40.198,238.420 39.859 C 238.162 39.749,237.952 39.297,237.952 38.855 C 237.952 38.414,237.729 37.962,237.456 37.851 C 237.183 37.741,235.277 35.785,233.222 33.505 C 227.844 27.540,218.146 21.806,210.224 19.906 C 203.670 18.336,192.599 18.287,186.446 19.801 M189.616 39.122 C 171.480 44.919,164.104 66.357,174.788 82.216 C 190.308 105.253,226.506 94.089,226.506 66.265 C 226.506 47.209,207.670 33.350,189.616 39.122 M301.061 103.438 C 301.811 103.582,302.895 103.577,303.471 103.426 C 304.047 103.275,303.434 103.157,302.108 103.164 C 300.783 103.171,300.312 103.294,301.061 103.438 M314.133 103.633 C 334.895 106.941,350.355 122.249,353.965 143.072 L 354.801 147.892 354.505 143.532 C 354.143 138.180,351.568 130.853,348.042 125.136 C 346.634 122.854,344.851 119.922,344.079 118.622 C 343.307 117.321,342.088 115.952,341.368 115.579 C 340.649 115.206,338.956 114.009,337.607 112.920 C 331.576 108.049,321.431 103.840,314.528 103.346 L 310.542 103.061 314.133 103.633 M300.762 122.615 C 279.333 128.386,271.903 153.614,286.907 169.654 C 303.618 187.517,332.498 177.650,335.820 152.943 C 338.291 134.565,318.847 117.745,300.762 122.615 M354.312 154.217 C 354.252 155.377,354.075 157.410,353.918 158.735 L 353.633 161.145 354.251 158.735 C 354.591 157.410,354.768 155.377,354.644 154.217 L 354.419 152.108 354.312 154.217 M351.831 165.717 C 342.672 192.619,311.710 204.845,285.718 191.822 L 280.172 189.042 274.273 192.625 C 271.028 194.596,262.952 199.538,256.325 203.609 C 249.699 207.679,240.482 213.324,235.843 216.153 C 223.964 223.398,221.084 225.276,221.090 225.772 C 221.093 226.010,221.368 230.678,221.701 236.145 C 222.034 241.611,223.110 261.066,224.093 279.377 C 226.055 315.918,226.570 324.096,226.910 324.096 C 227.034 324.096,232.755 320.792,239.622 316.753 C 246.490 312.714,254.955 307.744,258.434 305.710 C 276.813 294.960,290.301 287.014,292.239 285.795 L 294.417 284.424 294.117 276.090 C 293.228 251.371,308.777 231.647,332.530 227.363 C 358.404 222.696,383.634 240.921,387.354 266.965 L 387.899 270.783 387.613 266.566 C 387.282 261.675,385.668 255.397,383.997 252.496 C 380.490 246.409,377.566 242.603,373.725 239.124 C 366.469 232.552,364.996 231.619,357.530 228.868 L 350.301 226.205 340.663 226.205 L 331.024 226.205 323.795 228.884 C 319.819 230.358,315.512 232.391,314.223 233.402 C 310.033 236.690,302.744 243.636,301.812 245.228 C 294.278 258.108,293.865 259.493,293.423 273.366 C 293.077 284.239,292.818 285.485,290.899 285.533 C 290.698 285.538,286.090 288.209,280.658 291.469 C 275.227 294.729,270.079 297.778,269.219 298.246 C 265.017 300.530,261.010 302.904,258.210 304.767 C 256.511 305.897,253.069 307.931,250.562 309.285 C 244.657 312.474,240.780 314.743,237.048 317.194 C 235.392 318.282,232.623 319.996,230.895 321.003 L 227.755 322.834 227.448 320.905 C 227.279 319.844,226.067 298.102,224.754 272.590 L 222.367 226.205 223.608 224.881 C 224.291 224.152,225.629 223.385,226.582 223.176 C 227.534 222.967,228.313 222.546,228.313 222.241 C 228.313 221.936,228.568 221.687,228.880 221.687 C 229.192 221.687,231.564 220.240,234.151 218.472 C 236.738 216.704,239.574 214.875,240.452 214.406 C 241.331 213.938,245.336 211.521,249.354 209.036 C 253.371 206.551,257.659 203.976,258.882 203.313 C 260.105 202.651,261.473 201.770,261.921 201.355 C 262.370 200.941,263.124 200.602,263.597 200.602 C 264.071 200.602,264.458 200.381,264.458 200.111 C 264.458 199.841,265.610 198.980,267.018 198.199 C 268.426 197.418,271.545 195.462,273.948 193.852 C 279.916 189.854,279.475 189.886,285.770 192.990 C 298.722 199.375,315.821 199.739,327.410 193.874 C 339.582 187.715,351.944 173.498,353.365 164.025 C 353.914 160.358,353.500 160.816,351.831 165.717 M86.446 174.734 C 114.925 176.495,135.317 199.761,131.946 226.648 C 131.604 229.369,131.325 231.644,131.325 231.703 C 131.325 231.763,133.562 233.233,136.295 234.971 C 139.029 236.708,144.111 239.953,147.590 242.181 C 164.778 253.188,175.958 260.241,176.218 260.241 C 177.857 260.241,173.551 256.915,168.029 253.916 C 164.700 252.107,153.710 245.071,151.801 243.524 C 150.880 242.779,149.828 242.169,149.461 242.169 C 149.095 242.169,148.795 241.898,148.795 241.566 C 148.795 241.235,148.488 240.964,148.112 240.964 C 147.413 240.964,135.305 233.526,133.807 232.175 C 133.174 231.605,132.946 229.070,132.853 221.586 C 132.724 211.168,132.442 209.751,129.036 202.440 C 120.434 183.976,104.729 173.874,85.116 174.192 L 79.217 174.287 86.446 174.734 M72.174 175.631 C 63.685 177.689,57.297 181.706,49.847 189.670 C 44.529 195.354,43.881 196.441,39.906 206.325 L 37.726 211.747 37.688 221.687 L 37.651 231.627 40.813 238.901 C 42.553 242.902,43.976 246.366,43.976 246.600 C 43.976 247.874,53.754 258.436,56.873 260.531 C 71.771 270.536,89.381 272.011,106.458 264.683 C 112.065 262.277,112.196 262.290,117.560 265.797 C 119.664 267.172,122.403 268.856,123.646 269.540 C 128.512 272.217,154.836 288.998,155.723 289.989 C 156.054 290.360,157.597 291.261,159.150 291.993 C 160.704 292.724,163.582 294.486,165.545 295.908 C 167.508 297.330,170.370 299.233,171.906 300.136 L 174.699 301.778 174.699 365.949 C 174.699 414.359,174.871 430.120,175.400 430.120 C 175.930 430.120,176.004 420.755,175.702 391.717 C 175.482 370.595,175.294 341.521,175.285 327.108 L 175.267 300.904 171.820 298.838 C 169.925 297.702,165.120 294.683,161.145 292.128 C 157.169 289.573,144.480 281.491,132.947 274.167 L 111.979 260.850 106.441 263.522 C 74.134 279.107,38.880 257.277,38.880 221.687 C 38.880 198.732,52.389 181.377,74.482 175.949 C 77.086 175.310,78.404 174.789,77.410 174.793 C 76.416 174.796,74.060 175.173,72.174 175.631 M78.165 194.026 C 64.740 197.191,54.771 212.295,57.109 225.928 C 61.665 252.501,96.822 258.858,110.099 235.509 C 122.307 214.042,102.484 188.293,78.165 194.026 M176.758 245.181 C 176.758 251.642,176.847 254.285,176.955 251.054 C 177.063 247.824,177.063 242.538,176.955 239.307 C 176.847 236.077,176.758 238.720,176.758 245.181 M331.928 246.592 C 306.131 255.724,305.735 291.070,331.325 300.440 C 354.406 308.891,376.744 284.568,366.673 261.952 C 360.865 248.912,345.083 241.935,331.928 246.592 M387.149 280.663 C 383.915 311.611,346.287 330.277,318.072 314.931 L 314.759 313.128 305.120 318.809 C 299.819 321.934,290.060 327.700,283.434 331.623 C 276.807 335.545,268.539 340.422,265.060 342.460 C 261.581 344.498,253.313 349.382,246.687 353.314 C 240.060 357.246,233.489 361.112,232.084 361.906 C 228.648 363.848,228.768 363.365,229.326 373.052 L 229.819 381.627 230.120 372.658 L 230.422 363.689 235.204 361.212 C 237.835 359.850,240.371 358.387,240.839 357.962 C 241.308 357.537,242.816 356.619,244.189 355.922 C 245.563 355.225,247.902 353.822,249.387 352.804 C 250.872 351.787,254.143 349.859,256.656 348.519 C 262.227 345.551,265.945 343.363,271.084 340.028 C 273.238 338.631,277.575 336.067,280.723 334.331 C 283.870 332.595,287.256 330.599,288.246 329.895 C 289.236 329.191,291.561 327.801,293.413 326.807 C 297.199 324.775,304.778 320.314,311.588 316.110 C 314.665 314.210,315.722 314.390,322.658 317.998 C 328.633 321.106,343.921 322.193,352.371 320.110 C 366.660 316.588,381.057 303.606,385.571 290.175 C 387.132 285.530,388.581 277.108,387.820 277.108 C 387.655 277.108,387.354 278.708,387.149 280.663 M229.625 400.602 C 229.551 403.419,229.245 408.840,228.946 412.651 C 227.993 424.819,227.745 429.244,228.077 428.163 C 228.256 427.583,228.788 427.108,229.261 427.108 C 229.734 427.108,230.116 426.634,230.111 426.054 C 230.103 425.153,230.017 425.131,229.518 425.904 C 228.742 427.104,228.748 425.248,229.556 414.018 C 229.907 409.125,230.098 402.952,229.978 400.301 L 229.761 395.482 229.625 400.602 " stroke="none" fill="#4bc4e2" fill-rule="evenodd"></path></g></svg>