<?xml version="1.0" encoding="utf-8"?>
<!-- Generator: Adobe Illustrator 19.2.1, SVG Export Plug-In . SVG Version: 6.00 Build 0)  -->
<svg version="1.1" id="Layer_1" xmlns="http://www.w3.org/2000/svg" xmlns:xlink="http://www.w3.org/1999/xlink" x="0px" y="0px"
	 viewBox="0 0 747.2 290.2" style="enable-background:new 0 0 747.2 290.2;" xml:space="preserve">
<style type="text/css">
	.st0{fill:#FFFFFF;}
	.st1{fill:#43C4E4;stroke:#FFFFFF;stroke-width:7;stroke-miterlimit:10;}
</style>
<path class="st0" d="M68.7,143.1c17.2,0,30.5,5.9,40,17.6c9.5,11.7,14.2,28.3,14.2,49.7s-4.8,38.1-14.4,50
	c-9.6,11.9-22.9,17.8-39.8,17.8c-8.5,0-16.3-1.6-23.3-4.7c-7-3.1-12.9-8-17.7-14.5h-1.4l-4.2,16.8H7.9V90.5h19.8v45
	c0,10.1-0.3,19.1-1,27.2h1C36.9,149.6,50.6,143.1,68.7,143.1z M65.8,159.7c-13.5,0-23.2,3.9-29.2,11.6c-6,7.7-8.9,20.8-8.9,39.1
	c0,18.3,3.1,31.5,9.2,39.4c6.1,7.9,15.9,11.9,29.4,11.9c12.2,0,21.2-4.4,27.2-13.3c6-8.9,8.9-21.6,8.9-38.2c0-17-3-29.7-8.9-38
	C87.5,163.8,78.3,159.7,65.8,159.7z"/>
<path class="st0" d="M210.9,142.9c5.8,0,11,0.5,15.6,1.4l-2.7,18.3c-5.4-1.2-10.2-1.8-14.3-1.8c-10.6,0-19.6,4.3-27.1,12.9
	c-7.5,8.6-11.3,19.3-11.3,32v70h-19.8V145.3h16.3l2.3,24.2h1c4.8-8.5,10.7-15,17.5-19.7C195.2,145.2,202.8,142.9,210.9,142.9z"/>
<path class="st0" d="M326.2,275.8l-3.9-18.6h-1c-6.5,8.2-13,13.7-19.5,16.6c-6.5,2.9-14.6,4.3-24.2,4.3c-12.9,0-23.1-3.3-30.4-10
	c-7.3-6.7-11-16.2-11-28.5c0-26.4,21.1-40.2,63.3-41.5l22.2-0.7v-8.1c0-10.2-2.2-17.8-6.6-22.7c-4.4-4.9-11.5-7.3-21.1-7.3
	c-10.9,0-23.2,3.3-36.9,10l-6.1-15.1c6.4-3.5,13.5-6.2,21.1-8.2c7.7-2,15.3-3,23.1-3c15.6,0,27.1,3.5,34.6,10.4
	c7.5,6.9,11.3,18,11.3,33.2v89.1H326.2z M281.5,261.9c12.3,0,22-3.4,29-10.1c7-6.8,10.5-16.2,10.5-28.4v-11.8l-19.8,0.8
	c-15.7,0.6-27.1,3-34,7.3c-7,4.3-10.4,11.1-10.4,20.2c0,7.1,2.2,12.6,6.5,16.3C267.7,260,273.7,261.9,281.5,261.9z"/>
<path class="st0" d="M459.8,275.8v-84.5c0-10.6-2.4-18.6-7.3-23.8c-4.8-5.2-12.4-7.9-22.8-7.9c-13.7,0-23.7,3.7-30,11.1
	c-6.4,7.4-9.5,19.6-9.5,36.6v68.5h-19.8V145.3h16.1l3.2,17.9h1c4-6.4,9.7-11.4,17-14.9c7.3-3.5,15.4-5.3,24.4-5.3
	c15.7,0,27.6,3.8,35.5,11.4c7.9,7.6,11.9,19.7,11.9,36.4v85.2H459.8z"/>
<path class="st0" d="M565.3,278.2c-18.9,0-33.5-5.8-43.9-17.5c-10.4-11.6-15.5-28.1-15.5-49.4c0-21.8,5.3-38.7,15.8-50.6
	c10.5-11.9,25.5-17.9,45-17.9c6.3,0,12.5,0.7,18.8,2c6.3,1.4,11.2,2.9,14.8,4.8l-6.1,16.8c-4.4-1.7-9.1-3.2-14.3-4.3
	c-5.2-1.2-9.7-1.7-13.7-1.7c-26.5,0-39.8,16.9-39.8,50.7c0,16,3.2,28.4,9.7,36.9c6.5,8.6,16.1,12.9,28.8,12.9c10.9,0,22-2.3,33.5-7
	v17.5C589.6,275.9,578.6,278.2,565.3,278.2z"/>
<g>
	<path class="st0" d="M723,152.2c-8.1-7.7-20.2-11.6-36.5-11.6c-9.4,0-17.7,1.8-25,5.5c-7.3,3.7-12.9,8.1-16.9,15.1h-1.2
		c0.6-5,1-10.2,1-17.1l-0.4-7.3l38.4-22.6l-6.7-11.3l-32.6,19.2l-2.1-37.5l27.8-17.1L662,56.4l-21.8,13.4L638,28.4l-11.8,1.1
		L624.3,98l-23.2-14.8l-7,11.1l29.8,18.9c0,0.4,0,0.5,0,0.9l0.4,161H644v-69c0-17.3,3.4-29.8,9.8-37.4c6.4-7.6,16.7-11.4,30.7-11.4
		c10.5,0,18.2,2.7,23.1,8c4.9,5.3,7.3,13.4,7.3,24.3v85.5h20v-86.2C735,172.2,731.1,160,723,152.2z"/>
	<circle class="st1" cx="686.2" cy="102.9" r="14.3"/>
	<circle class="st1" cx="673.6" cy="56.4" r="14.3"/>
	<circle class="st1" cx="589.8" cy="83.3" r="14.3"/>
	<circle class="st1" cx="632.4" cy="24.7" r="14.3"/>
</g>
</svg>
